<?xml version="1.0" standalone="no"?>
<!DOCTYPE svg PUBLIC "-//W3C//DTD SVG 20010904//EN"
 "http://www.w3.org/TR/2001/REC-SVG-20010904/DTD/svg10.dtd">
<svg version="1.0" xmlns="http://www.w3.org/2000/svg"
 width="718.000000pt" height="718.000000pt" viewBox="0 0 718.000000 718.000000"
 preserveAspectRatio="xMidYMid meet">
<metadata>
Created by potrace 1.11, written by Peter Selinger 2001-2013
</metadata>
<g transform="translate(0.000000,718.000000) scale(0.100000,-0.100000)"
fill="#000000" stroke="none">
<path d="M3577 7174 c-1 -1 -40 -4 -87 -8 -280 -21 -517 -99 -737 -241 -148
-96 -323 -288 -415 -456 -26 -46 -98 -205 -102 -224 -2 -5 -12 -41 -24 -80
-27 -88 -50 -190 -57 -246 -3 -24 -8 -62 -12 -84 -3 -22 -7 -201 -7 -397 l-1
-358 255 0 255 0 0 318 c-1 335 8 441 46 586 55 207 166 382 311 491 109 82
284 153 423 171 22 3 63 9 90 12 61 9 238 8 320 -2 376 -42 612 -201 754 -507
33 -70 76 -212 86 -280 3 -24 9 -53 12 -64 4 -11 7 -286 8 -612 0 -522 -1
-592 -15 -595 -8 -2 -369 -4 -802 -3 l-788 0 0 -255 0 -255 1500 0 c825 0
1501 -2 1501 -5 1 -3 2 -803 3 -1778 1 -1568 -1 -1775 -14 -1781 -17 -8 -2825
-6 -3740 3 -316 3 -727 6 -912 6 -309 1 -338 3 -339 18 -1 38 2 1025 6 1767 2
435 5 1004 5 1265 1 261 4 482 6 490 3 13 42 15 294 15 l290 0 0 255 0 255
-545 0 c-300 0 -545 -2 -546 -5 -2 -12 -9 -1273 -23 -4072 l-2 -488 26 -1 c34
-2 555 -6 1610 -15 932 -7 4368 -13 4385 -7 7 2 10 775 10 2296 l0 2292 -690
1 c-379 1 -695 2 -700 3 -7 1 -10 202 -11 584 0 320 -4 609 -7 642 -15 119
-18 141 -39 230 -65 283 -194 524 -382 711 -273 272 -615 401 -1084 408 -62 1
-114 1 -115 0z"/>
<path d="M2255 4643 c-44 -13 -99 -46 -130 -78 -50 -51 -79 -153 -73 -259 10
-199 133 -301 350 -290 180 9 295 121 302 294 7 155 -56 266 -183 323 -59 27
-195 32 -266 10z"/>
<path d="M4270 3510 c-386 -63 -647 -276 -773 -630 -14 -39 -40 -131 -39 -137
1 -2 -4 -17 -9 -35 -5 -18 -12 -55 -15 -83 -3 -27 -8 -53 -10 -56 -6 -10 -18
-216 -18 -304 0 -86 13 -285 18 -294 2 -3 7 -28 10 -56 32 -235 141 -469 290
-619 147 -147 357 -246 584 -273 122 -15 473 -6 502 12 4 3 25 7 45 11 21 3
72 17 114 31 394 131 608 436 671 955 9 78 6 480 -5 538 -48 271 -93 398 -191
546 -149 226 -390 363 -709 404 -113 15 -342 10 -465 -10z m425 -455 c102 -21
200 -72 259 -135 66 -70 126 -198 142 -300 3 -19 7 -40 9 -47 17 -52 25 -361
12 -503 -37 -420 -226 -605 -610 -595 -292 8 -453 126 -535 395 -58 189 -61
576 -7 780 81 301 252 423 580 415 66 -2 134 -6 150 -10z"/>
<path d="M1650 3260 l0 -220 260 0 260 0 0 -780 0 -780 -260 0 -260 0 0 -200
0 -200 740 0 740 0 0 200 c0 153 -3 200 -12 201 -7 0 -26 2 -43 5 -16 2 -57 6
-90 8 -90 6 -237 18 -260 21 -11 1 -32 3 -47 4 l-28 1 0 980 0 980 -500 0
-500 0 0 -220z"/>
</g>
</svg>
